<svg width="34" height="35" viewBox="0 0 34 35" fill="none" xmlns="http://www.w3.org/2000/svg">
<path d="M17.2905 1.42822H17.9478C18.5757 1.43147 19.1201 1.45229 19.5952 1.55029C20.1969 1.67442 20.6074 1.90817 20.8853 2.34717L20.8901 2.35498L20.896 2.36377C20.9267 2.40921 20.9478 2.4493 20.9839 2.52002L26.0796 15.2017L28.647 21.6206L32.9614 32.4116L32.9653 32.4214C33.1541 32.8724 33.2541 33.1686 33.2915 33.3647C33.2944 33.3799 33.2935 33.3942 33.2954 33.4067C33.2763 33.4107 33.2541 33.4174 33.228 33.4214C33.0252 33.4523 32.7321 33.4614 32.2974 33.4614H24.4692C23.9644 33.4491 23.8764 33.3896 23.8647 33.3804C23.8632 33.3791 23.8223 33.3497 23.7603 33.1382L23.6919 32.8599L22.7339 27.5581H22.7329C22.6376 27.0103 22.1973 26.7005 21.7778 26.6343C21.3836 26.5721 20.914 26.7074 20.6323 27.1138L20.5776 27.1987L20.5767 27.2007L18.0522 31.6196C17.9026 31.8772 17.6256 32.0073 17.3354 31.9868L17.2905 31.9839L17.2446 31.9868C16.9905 32.0047 16.7465 31.9071 16.5894 31.7095L16.5278 31.6196L14.0034 27.2007L14.0024 27.1987L13.9487 27.1138C13.6671 26.7071 13.1966 26.572 12.8022 26.6343C12.4071 26.6967 11.993 26.9752 11.8667 27.4653L11.8452 27.5659L10.8892 32.8599C10.7921 33.3155 10.7216 33.3761 10.7163 33.3804C10.7051 33.3893 10.6183 33.4491 10.1118 33.4614H2.28369C1.8486 33.4614 1.5549 33.4523 1.35205 33.4214C1.32541 33.4173 1.3031 33.4107 1.28369 33.4067C1.28563 33.3942 1.28567 33.38 1.28857 33.3647C1.31662 33.2175 1.38011 33.0139 1.48975 32.731L1.61475 32.4214L1.61865 32.4116L5.93408 21.6206L8.50146 15.2007L8.50049 15.1997L13.5952 2.52002C13.6315 2.44906 13.6534 2.40926 13.6841 2.36377L13.6899 2.35498L13.6948 2.34717C13.9724 1.90847 14.3829 1.67513 14.9849 1.55127C15.4604 1.45343 16.0049 1.43305 16.6333 1.4292L17.2905 1.42822ZM15.6753 12.8423C15.2116 12.8423 14.7358 13.1569 14.645 13.6948L13.8247 18.2124V18.2134L13.1216 22.1255L12.9858 22.8618C12.8613 23.5302 13.3936 24.0845 14.0229 24.0845H20.5581C21.1481 24.0843 21.6519 23.5974 21.6099 22.9858L21.5942 22.8618L21.4585 22.1255L20.7563 18.2134L20.7554 18.2124L19.936 13.6948H19.9341C19.8432 13.157 19.3684 12.8423 18.9048 12.8423H15.6753ZM17.2905 4.03467C17.2832 4.03467 17.2125 4.03253 17.1177 4.04932C17.0346 4.056 16.9349 4.07782 16.8286 4.12744C16.5261 4.25346 16.2947 4.52285 16.229 4.87451L16.2173 4.93311V4.95752L15.313 9.96631C15.19 10.6398 15.7357 11.184 16.3501 11.1841H18.23C18.8448 11.1841 19.39 10.6394 19.2661 9.96533H19.2671L18.3599 4.95752V4.94092L18.3511 4.88818C18.2913 4.52367 18.0518 4.25162 17.7485 4.12646C17.6432 4.07784 17.5448 4.05591 17.4624 4.04932C17.369 4.03282 17.2994 4.03458 17.2905 4.03467Z" stroke="#3D3D3D" stroke-width="1.3" stroke-miterlimit="10"/>
</svg>
