<svg width="41" height="40" viewBox="0 0 41 40" fill="none" xmlns="http://www.w3.org/2000/svg">
<g clip-path="url(#clip0_451_1950)">
<path d="M20.9199 40C16.9643 40 13.0975 38.827 9.80853 36.6294C6.51954 34.4318 3.95609 31.3082 2.44234 27.6537C0.928587 23.9992 0.532521 19.9778 1.30423 16.0982C2.07593 12.2186 3.98075 8.65492 6.7778 5.85787C9.57485 3.06082 13.1385 1.15601 17.0181 0.384303C20.8977 -0.387401 24.9191 0.00866562 28.5736 1.52242C32.2281 3.03617 35.3517 5.59962 37.5493 8.8886C39.747 12.1776 40.9199 16.0444 40.9199 20C40.9141 25.3026 38.8051 30.3863 35.0557 34.1357C31.3062 37.8852 26.2225 39.9942 20.9199 40ZM20.9199 1.25001C17.2115 1.25001 13.5864 2.34968 10.503 4.40995C7.41957 6.47023 5.01633 9.39858 3.59719 12.8247C2.17805 16.2508 1.80673 20.0208 2.53021 23.658C3.25368 27.2951 5.03944 30.636 7.66168 33.2583C10.2839 35.8805 13.6248 37.6663 17.262 38.3897C20.8991 39.1132 24.6691 38.7419 28.0952 37.3228C31.5214 35.9036 34.4497 33.5004 36.51 30.417C38.5703 27.3335 39.6699 23.7084 39.6699 20C39.6641 15.029 37.6868 10.2632 34.1718 6.74815C30.6567 3.2331 25.891 1.2558 20.9199 1.25001Z" fill="#3D3D3D"/>
<path fill-rule="evenodd" clip-rule="evenodd" d="M20.92 11.57C18.7039 11.57 16.9075 13.3664 16.9075 15.5821C16.9075 17.7982 18.7039 19.5946 20.92 19.5946C23.1361 19.5946 24.9325 17.7982 24.9325 15.5821C24.9325 13.3664 23.1361 11.57 20.92 11.57ZM15.854 15.5821C15.854 12.7844 18.1222 10.5161 20.92 10.5161C23.7178 10.5161 25.986 12.7844 25.986 15.5821C25.986 18.3803 23.7178 20.6485 20.92 20.6485C18.1222 20.6485 15.854 18.3799 15.854 15.5821Z" fill="#3D3D3D"/>
<path fill-rule="evenodd" clip-rule="evenodd" d="M20.92 21.0539C16.2333 21.0539 12.4899 24.6218 12.4899 28.9572C12.4899 29.0969 12.4344 29.231 12.3356 29.3298C12.2368 29.4286 12.1027 29.4841 11.963 29.4841C11.8232 29.4841 11.6892 29.4286 11.5904 29.3298C11.4916 29.231 11.436 29.0969 11.436 28.9572C11.436 23.9805 15.7129 20 20.92 20C26.1275 20 30.4039 23.9805 30.4039 28.9572C30.4039 29.0969 30.3484 29.231 30.2496 29.3298C30.1508 29.4286 30.0167 29.4841 29.877 29.4841C29.7372 29.4841 29.6032 29.4286 29.5044 29.3298C29.4055 29.231 29.35 29.0969 29.35 28.9572C29.35 24.6218 25.6062 21.0539 20.92 21.0539Z" fill="#3D3D3D"/>
</g>
<defs>
<clipPath id="clip0_451_1950">
<rect width="40" height="40" fill="white" transform="translate(0.919922)"/>
</clipPath>
</defs>
</svg>
