<svg width="16" height="30" viewBox="0 0 16 30" fill="none" xmlns="http://www.w3.org/2000/svg">
<path d="M2.21995 29.4478C1.90329 29.4478 1.58662 29.3312 1.33662 29.0812C0.853288 28.5978 0.853288 27.7978 1.33662 27.3145L12.2033 16.4478C13.0033 15.6478 13.0033 14.3478 12.2033 13.5478L1.33662 2.68117C0.853288 2.19784 0.853288 1.39784 1.33662 0.914502C1.81995 0.431169 2.61995 0.431169 3.10329 0.914502L13.97 11.7812C14.82 12.6312 15.3033 13.7812 15.3033 14.9978C15.3033 16.2145 14.8366 17.3645 13.97 18.2145L3.10329 29.0812C2.85329 29.3145 2.53662 29.4478 2.21995 29.4478Z" fill="#4D4D4D"/>
</svg>
