<svg width="33" height="33" viewBox="0 0 33 33" fill="none" xmlns="http://www.w3.org/2000/svg">
<path d="M11.9569 27.8698C11.7035 27.8698 11.4502 27.7765 11.2502 27.5765C10.8635 27.1898 10.8635 26.5498 11.2502 26.1632L19.9435 17.4698C20.5835 16.8298 20.5835 15.7898 19.9435 15.1498L11.2502 6.45651C10.8635 6.06984 10.8635 5.42984 11.2502 5.04317C11.6369 4.65651 12.2769 4.65651 12.6635 5.04317L21.3569 13.7365C22.0369 14.4165 22.4235 15.3365 22.4235 16.3098C22.4235 17.2832 22.0502 18.2032 21.3569 18.8832L12.6635 27.5765C12.4635 27.7632 12.2102 27.8698 11.9569 27.8698Z" fill="#3E9AC4"/>
</svg>
