<svg width="24" height="25" viewBox="0 0 24 25" fill="none" xmlns="http://www.w3.org/2000/svg">
<path d="M0.150089 12.0124C0.245317 11.7671 0.388109 11.543 0.570267 11.3529L10.5744 1.36114C10.761 1.17481 10.9824 1.02701 11.2262 0.926176C11.4699 0.825339 11.7312 0.773437 11.995 0.773438C12.5278 0.773437 13.0388 0.984839 13.4156 1.36114C13.6022 1.54746 13.7501 1.76866 13.8511 2.0121C13.9521 2.25555 14.004 2.51647 14.004 2.77997C14.004 3.31213 13.7924 3.8225 13.4156 4.1988L6.81286 10.7734H21.9992C22.5298 10.7734 23.0387 10.9839 23.414 11.3587C23.7892 11.7334 24 12.2417 24 12.7717C24 13.3017 23.7892 13.81 23.414 14.1848C23.0387 14.5595 22.5298 14.7701 21.9992 14.7701H6.81286L13.4156 21.3447C13.6031 21.5304 13.752 21.7515 13.8536 21.995C13.9551 22.2385 14.0074 22.4997 14.0074 22.7635C14.0074 23.0273 13.9551 23.2885 13.8536 23.532C13.752 23.7755 13.6031 23.9966 13.4156 24.1823C13.2296 24.3696 13.0083 24.5183 12.7645 24.6198C12.5207 24.7212 12.2591 24.7734 11.995 24.7734C11.7309 24.7734 11.4694 24.7212 11.2255 24.6198C10.9817 24.5183 10.7604 24.3696 10.5744 24.1823L0.570267 14.1906C0.388109 14.0005 0.245317 13.7764 0.150089 13.5311C-0.0500298 13.0446 -0.0500298 12.4989 0.150089 12.0124Z" fill="#3D3D3D"/>
</svg>
