<svg width="66" height="65" viewBox="0 0 66 65" fill="none" xmlns="http://www.w3.org/2000/svg">
<rect x="0.894531" y="0.565552" width="64.117" height="64.117" rx="8.01462" fill="#3E9AC4"/>
<path d="M26.2743 22.1884C25.5897 22.1884 25.022 21.6207 25.022 20.9361V15.927C25.022 15.2424 25.5897 14.6747 26.2743 14.6747C26.9588 14.6747 27.5265 15.2424 27.5265 15.927V20.9361C27.5265 21.6207 26.9588 22.1884 26.2743 22.1884Z" fill="#F3F3F3"/>
<path d="M39.6317 22.1884C38.9471 22.1884 38.3794 21.6207 38.3794 20.9361V15.927C38.3794 15.2424 38.9471 14.6747 39.6317 14.6747C40.3163 14.6747 40.884 15.2424 40.884 15.927V20.9361C40.884 21.6207 40.3163 22.1884 39.6317 22.1884Z" fill="#F3F3F3"/>
<path d="M27.1092 36.7984C26.8921 36.7984 26.675 36.7484 26.4747 36.6649C26.2576 36.5814 26.0906 36.4645 25.9237 36.3142C25.6231 35.9969 25.4395 35.5795 25.4395 35.1287C25.4395 34.9116 25.4895 34.6946 25.573 34.4942C25.6565 34.2938 25.7734 34.1102 25.9237 33.9432C26.0906 33.793 26.2576 33.676 26.4747 33.5926C27.0758 33.3421 27.8271 33.4757 28.2947 33.9432C28.5952 34.2605 28.7789 34.6946 28.7789 35.1287C28.7789 35.2289 28.7622 35.3458 28.7455 35.4627C28.7288 35.5629 28.6954 35.663 28.6453 35.7632C28.6119 35.8634 28.5618 35.9636 28.495 36.0637C28.4449 36.1472 28.3614 36.2307 28.2947 36.3142C27.9774 36.6147 27.5433 36.7984 27.1092 36.7984Z" fill="#F3F3F3"/>
<path d="M32.9529 36.7984C32.7359 36.7984 32.5188 36.7483 32.3184 36.6648C32.1014 36.5814 31.9344 36.4644 31.7674 36.3142C31.4669 35.9969 31.2832 35.5795 31.2832 35.1287C31.2832 34.9116 31.3333 34.6946 31.4168 34.4942C31.5003 34.2938 31.6171 34.1102 31.7674 33.9432C31.9344 33.7929 32.1014 33.676 32.3184 33.5925C32.9195 33.3254 33.6709 33.4757 34.1384 33.9432C34.439 34.2604 34.6226 34.6946 34.6226 35.1287C34.6226 35.2289 34.6059 35.3458 34.5892 35.4626C34.5725 35.5628 34.5391 35.663 34.489 35.7632C34.4557 35.8634 34.4056 35.9635 34.3388 36.0637C34.2887 36.1472 34.2052 36.2307 34.1384 36.3142C33.8212 36.6147 33.387 36.7984 32.9529 36.7984Z" fill="#F3F3F3"/>
<path d="M38.7967 36.7984C38.5796 36.7984 38.3625 36.7483 38.1622 36.6648C37.9451 36.5814 37.7781 36.4644 37.6112 36.3142C37.5444 36.2307 37.4776 36.1472 37.4108 36.0637C37.344 35.9635 37.2939 35.8634 37.2605 35.7632C37.2104 35.663 37.177 35.5628 37.1603 35.4626C37.1437 35.3458 37.127 35.2289 37.127 35.1287C37.127 34.6946 37.3106 34.2604 37.6112 33.9432C37.7781 33.7929 37.9451 33.676 38.1622 33.5925C38.78 33.3254 39.5146 33.4757 39.9822 33.9432C40.2827 34.2604 40.4664 34.6946 40.4664 35.1287C40.4664 35.2289 40.4497 35.3458 40.433 35.4626C40.4163 35.5628 40.3829 35.663 40.3328 35.7632C40.2994 35.8634 40.2493 35.9635 40.1825 36.0637C40.1324 36.1472 40.0489 36.2307 39.9822 36.3142C39.6649 36.6147 39.2308 36.7984 38.7967 36.7984Z" fill="#F3F3F3"/>
<path d="M27.1092 42.6423C26.8921 42.6423 26.675 42.5922 26.4747 42.5087C26.2743 42.4252 26.0906 42.3083 25.9237 42.158C25.6231 41.8408 25.4395 41.4067 25.4395 40.9726C25.4395 40.7555 25.4895 40.5384 25.573 40.3381C25.6565 40.121 25.7734 39.9373 25.9237 39.7871C26.5415 39.1693 27.6769 39.1693 28.2947 39.7871C28.5952 40.1043 28.7789 40.5384 28.7789 40.9726C28.7789 41.4067 28.5952 41.8408 28.2947 42.158C27.9774 42.4586 27.5433 42.6423 27.1092 42.6423Z" fill="#F3F3F3"/>
<path d="M32.9529 42.6423C32.5188 42.6423 32.0847 42.4586 31.7674 42.158C31.4669 41.8408 31.2832 41.4067 31.2832 40.9726C31.2832 40.7555 31.3333 40.5384 31.4168 40.3381C31.5003 40.121 31.6171 39.9373 31.7674 39.7871C32.3852 39.1693 33.5206 39.1693 34.1384 39.7871C34.2887 39.9373 34.4056 40.121 34.489 40.3381C34.5725 40.5384 34.6226 40.7555 34.6226 40.9726C34.6226 41.4067 34.439 41.8408 34.1384 42.158C33.8212 42.4586 33.387 42.6423 32.9529 42.6423Z" fill="#F3F3F3"/>
<path d="M38.7967 42.6424C38.3625 42.6424 37.9284 42.4587 37.6112 42.1582C37.4609 42.0079 37.344 41.8243 37.2605 41.6072C37.177 41.4068 37.127 41.1898 37.127 40.9727C37.127 40.7556 37.177 40.5386 37.2605 40.3382C37.344 40.1212 37.4609 39.9375 37.6112 39.7872C37.9952 39.4032 38.5796 39.2195 39.1139 39.3364C39.2308 39.3531 39.331 39.3865 39.4312 39.4366C39.5313 39.4699 39.6315 39.5201 39.7317 39.5869C39.8152 39.637 39.8987 39.7204 39.9822 39.7872C40.2827 40.1045 40.4664 40.5386 40.4664 40.9727C40.4664 41.4068 40.2827 41.8409 39.9822 42.1582C39.6649 42.4587 39.2308 42.6424 38.7967 42.6424Z" fill="#F3F3F3"/>
<path d="M47.1457 29.0174H18.7606C18.076 29.0174 17.5083 28.4497 17.5083 27.7651C17.5083 27.0805 18.076 26.5128 18.7606 26.5128H47.1457C47.8303 26.5128 48.398 27.0805 48.398 27.7651C48.398 28.4497 47.8303 29.0174 47.1457 29.0174Z" fill="#F3F3F3"/>
<path d="M39.6319 50.5735H26.2742C20.1797 50.5735 16.6733 47.0671 16.6733 40.9726V26.78C16.6733 20.6856 20.1797 17.1792 26.2742 17.1792H39.6319C45.7263 17.1792 49.2327 20.6856 49.2327 26.78V40.9726C49.2327 47.0671 45.7263 50.5735 39.6319 50.5735ZM26.2742 19.6838C21.4988 19.6838 19.1779 22.0047 19.1779 26.78V40.9726C19.1779 45.748 21.4988 48.0689 26.2742 48.0689H39.6319C44.4073 48.0689 46.7282 45.748 46.7282 40.9726V26.78C46.7282 22.0047 44.4073 19.6838 39.6319 19.6838H26.2742Z" fill="#F3F3F3"/>
</svg>
