<svg width="65" height="65" viewBox="0 0 65 65" fill="none" xmlns="http://www.w3.org/2000/svg">
<rect x="0.246094" y="0.565552" width="64.117" height="64.117" rx="8.01462" fill="#6C8C3E"/>
<path d="M32.3049 50.6738C31.1528 50.6738 30.0675 50.0894 29.2994 49.0709L26.7948 45.7315C26.7447 45.6647 26.5444 45.5812 26.4609 45.5645H25.626C18.6633 45.5645 14.3555 43.6777 14.3555 34.2939V25.9454C14.3555 18.5652 18.2459 14.6748 25.626 14.6748H38.9837C46.3639 14.6748 50.2543 18.5652 50.2543 25.9454V34.2939C50.2543 41.6741 46.3639 45.5645 38.9837 45.5645H38.1489C38.0153 45.5645 37.8984 45.6313 37.8149 45.7315L35.3104 49.0709C34.5423 50.0894 33.457 50.6738 32.3049 50.6738ZM25.626 17.1794C19.6485 17.1794 16.86 19.9678 16.86 25.9454V34.2939C16.86 41.841 19.4481 43.0599 25.626 43.0599H26.4609C27.3124 43.0599 28.2809 43.5441 28.7985 44.2287L31.3031 47.5681C31.8875 48.3362 32.7223 48.3362 33.3067 47.5681L35.8113 44.2287C36.3623 43.494 37.2305 43.0599 38.1489 43.0599H38.9837C44.9613 43.0599 47.7497 40.2715 47.7497 34.2939V25.9454C47.7497 19.9678 44.9613 17.1794 38.9837 17.1794H25.626Z" fill="#F3F3F3"/>
<path d="M32.3045 32.6238C31.3694 32.6238 30.6348 31.8725 30.6348 30.9541C30.6348 30.0358 31.3861 29.2844 32.3045 29.2844C33.2228 29.2844 33.9742 30.0358 33.9742 30.9541C33.9742 31.8725 33.2395 32.6238 32.3045 32.6238Z" fill="#F3F3F3"/>
<path d="M38.9832 32.624C38.0482 32.624 37.3135 31.8726 37.3135 30.9543C37.3135 30.0359 38.0648 29.2845 38.9832 29.2845C39.9015 29.2845 40.6529 30.0359 40.6529 30.9543C40.6529 31.8726 39.9182 32.624 38.9832 32.624Z" fill="#F3F3F3"/>
<path d="M25.6258 32.6238C24.6907 32.6238 23.9561 31.8725 23.9561 30.9541C23.9561 30.0358 24.7074 29.2844 25.6258 29.2844C26.5441 29.2844 27.2955 30.0358 27.2955 30.9541C27.2955 31.8725 26.5608 32.6238 25.6258 32.6238Z" fill="#F3F3F3"/>
</svg>
