<svg width="66" height="65" viewBox="0 0 66 65" fill="none" xmlns="http://www.w3.org/2000/svg">
<rect x="0.894531" y="0.565552" width="64.117" height="64.117" rx="8.01462" fill="#6C8C3E"/>
<path d="M37.9625 50.5735H27.9442C18.8776 50.5735 15.0039 46.6997 15.0039 37.6332V27.6149C15.0039 18.5484 18.8776 14.6747 27.9442 14.6747H37.9625C47.029 14.6747 50.9027 18.5484 50.9027 27.6149V37.6332C50.9027 46.6997 47.029 50.5735 37.9625 50.5735ZM27.9442 17.1792C20.2468 17.1792 17.5085 19.9175 17.5085 27.6149V37.6332C17.5085 45.3306 20.2468 48.0689 27.9442 48.0689H37.9625C45.6598 48.0689 48.3982 45.3306 48.3982 37.6332V27.6149C48.3982 19.9175 45.6598 17.1792 37.9625 17.1792H27.9442Z" fill="#F3F3F3"/>
<path d="M30.5823 38.6016C30.2483 38.6016 29.9311 38.468 29.6973 38.2343L24.972 33.509C24.4878 33.0248 24.4878 32.2233 24.972 31.7391C25.4563 31.2549 26.2577 31.2549 26.7419 31.7391L30.5823 35.5794L39.1646 26.9971C39.6488 26.5129 40.4503 26.5129 40.9345 26.9971C41.4187 27.4813 41.4187 28.2828 40.9345 28.767L31.4672 38.2343C31.2335 38.468 30.9162 38.6016 30.5823 38.6016Z" fill="#F3F3F3"/>
</svg>
