<svg width="41" height="41" viewBox="0 0 41 41" fill="none" xmlns="http://www.w3.org/2000/svg">
<path d="M32.4851 11.2191L11.2719 32.4323C10.5471 33.1571 9.34504 33.1571 8.62026 32.4323C7.89547 31.7075 7.89547 30.5054 8.62026 29.7806L29.8335 8.56741C30.5582 7.84263 31.7603 7.84263 32.4851 8.56741C33.2099 9.2922 33.2099 10.4943 32.4851 11.2191Z" fill="#4D4D4D"/>
<path d="M32.4851 32.4326C31.7603 33.1574 30.5582 33.1574 29.8335 32.4326L8.62026 11.2194C7.89547 10.4946 7.89547 9.29251 8.62026 8.56773C9.34504 7.84295 10.5471 7.84295 11.2719 8.56773L32.4851 29.7809C33.2099 30.5057 33.2099 31.7078 32.4851 32.4326Z" fill="#4D4D4D"/>
</svg>
