<svg width="57" height="57" viewBox="0 0 57 57" fill="none" xmlns="http://www.w3.org/2000/svg">
<rect x="1.3291" y="1" width="55" height="55" rx="11.5" fill="#AFAFAF"/>
<rect x="1.3291" y="1" width="55" height="55" rx="11.5" stroke="#AFAFAF"/>
<path d="M42.1626 22.1667H34.1626C33.6159 22.1667 33.1626 21.7134 33.1626 21.1667C33.1626 20.6201 33.6159 20.1667 34.1626 20.1667H42.1626C42.7093 20.1667 43.1626 20.6201 43.1626 21.1667C43.1626 21.7134 42.7093 22.1667 42.1626 22.1667Z" fill="#4D4D4D"/>
<path d="M20.8289 22.1667H15.4956C14.9489 22.1667 14.4956 21.7134 14.4956 21.1667C14.4956 20.6201 14.9489 20.1667 15.4956 20.1667H20.8289C21.3756 20.1667 21.8289 20.6201 21.8289 21.1667C21.8289 21.7134 21.3756 22.1667 20.8289 22.1667Z" fill="#4D4D4D"/>
<path d="M26.1623 26.8333C23.0423 26.8333 20.4956 24.2867 20.4956 21.1667C20.4956 18.0467 23.0423 15.5 26.1623 15.5C29.2823 15.5 31.8289 18.0467 31.8289 21.1667C31.8289 24.2867 29.2823 26.8333 26.1623 26.8333ZM26.1623 17.5C24.1356 17.5 22.4956 19.14 22.4956 21.1667C22.4956 23.1933 24.1356 24.8333 26.1623 24.8333C28.1889 24.8333 29.8289 23.1933 29.8289 21.1667C29.8289 19.14 28.1889 17.5 26.1623 17.5Z" fill="#4D4D4D"/>
<path d="M42.1624 36.8333H36.8291C36.2824 36.8333 35.8291 36.3799 35.8291 35.8333C35.8291 35.2866 36.2824 34.8333 36.8291 34.8333H42.1624C42.7091 34.8333 43.1624 35.2866 43.1624 35.8333C43.1624 36.3799 42.7091 36.8333 42.1624 36.8333Z" fill="#4D4D4D"/>
<path d="M23.4956 36.8333H15.4956C14.9489 36.8333 14.4956 36.3799 14.4956 35.8333C14.4956 35.2866 14.9489 34.8333 15.4956 34.8333H23.4956C24.0423 34.8333 24.4956 35.2866 24.4956 35.8333C24.4956 36.3799 24.0423 36.8333 23.4956 36.8333Z" fill="#4D4D4D"/>
<path d="M31.4958 41.5001C28.3758 41.5001 25.8291 38.9534 25.8291 35.8334C25.8291 32.7134 28.3758 30.1667 31.4958 30.1667C34.6158 30.1667 37.1624 32.7134 37.1624 35.8334C37.1624 38.9534 34.6158 41.5001 31.4958 41.5001ZM31.4958 32.1667C29.4691 32.1667 27.8291 33.8067 27.8291 35.8334C27.8291 37.8601 29.4691 39.5001 31.4958 39.5001C33.5224 39.5001 35.1624 37.8601 35.1624 35.8334C35.1624 33.8067 33.5224 32.1667 31.4958 32.1667Z" fill="#4D4D4D"/>
</svg>
