<svg width="57" height="56" viewBox="0 0 57 56" fill="none" xmlns="http://www.w3.org/2000/svg">
<rect x="1.02686" y="0.5" width="55" height="55" rx="11.5" stroke="#4D4D4D"/>
<path d="M41.8601 21.6666H33.8601C33.3134 21.6666 32.8601 21.2133 32.8601 20.6666C32.8601 20.12 33.3134 19.6666 33.8601 19.6666H41.8601C42.4068 19.6666 42.8601 20.12 42.8601 20.6666C42.8601 21.2133 42.4068 21.6666 41.8601 21.6666Z" fill="#4D4D4D"/>
<path d="M20.5269 21.6666H15.1936C14.6469 21.6666 14.1936 21.2133 14.1936 20.6666C14.1936 20.12 14.6469 19.6666 15.1936 19.6666H20.5269C21.0736 19.6666 21.5269 20.12 21.5269 20.6666C21.5269 21.2133 21.0736 21.6666 20.5269 21.6666Z" fill="#4D4D4D"/>
<path d="M25.8603 26.3333C22.7403 26.3333 20.1936 23.7867 20.1936 20.6667C20.1936 17.5467 22.7403 15 25.8603 15C28.9803 15 31.5269 17.5467 31.5269 20.6667C31.5269 23.7867 28.9803 26.3333 25.8603 26.3333ZM25.8603 17C23.8336 17 22.1936 18.64 22.1936 20.6667C22.1936 22.6933 23.8336 24.3333 25.8603 24.3333C27.8869 24.3333 29.5269 22.6933 29.5269 20.6667C29.5269 18.64 27.8869 17 25.8603 17Z" fill="#4D4D4D"/>
<path d="M41.8602 36.3334H36.5269C35.9802 36.3334 35.5269 35.88 35.5269 35.3334C35.5269 34.7867 35.9802 34.3334 36.5269 34.3334H41.8602C42.4069 34.3334 42.8602 34.7867 42.8602 35.3334C42.8602 35.88 42.4069 36.3334 41.8602 36.3334Z" fill="#4D4D4D"/>
<path d="M23.1936 36.3334H15.1936C14.6469 36.3334 14.1936 35.88 14.1936 35.3334C14.1936 34.7867 14.6469 34.3334 15.1936 34.3334H23.1936C23.7403 34.3334 24.1936 34.7867 24.1936 35.3334C24.1936 35.88 23.7403 36.3334 23.1936 36.3334Z" fill="#4D4D4D"/>
<path d="M31.1935 41C28.0735 41 25.5269 38.4533 25.5269 35.3333C25.5269 32.2133 28.0735 29.6666 31.1935 29.6666C34.3135 29.6666 36.8602 32.2133 36.8602 35.3333C36.8602 38.4533 34.3135 41 31.1935 41ZM31.1935 31.6666C29.1669 31.6666 27.5269 33.3066 27.5269 35.3333C27.5269 37.36 29.1669 39 31.1935 39C33.2202 39 34.8602 37.36 34.8602 35.3333C34.8602 33.3066 33.2202 31.6666 31.1935 31.6666Z" fill="#4D4D4D"/>
</svg>
