<svg width="41" height="40" viewBox="0 0 41 40" fill="none" xmlns="http://www.w3.org/2000/svg">
<path d="M35.5833 10.3029H5.52268C5.2655 10.3029 5.01885 10.2008 4.837 10.0189C4.65514 9.83705 4.55298 9.5904 4.55298 9.33322C4.55298 9.07604 4.65514 8.8294 4.837 8.64754C5.01885 8.46569 5.2655 8.36353 5.52268 8.36353H35.5833C35.8405 8.36353 36.0871 8.46569 36.269 8.64754C36.4508 8.8294 36.553 9.07604 36.553 9.33322C36.553 9.5904 36.4508 9.83705 36.269 10.0189C36.0871 10.2008 35.8405 10.3029 35.5833 10.3029ZM35.5833 20.9696H5.52268C5.2655 20.9696 5.01885 20.8674 4.837 20.6856C4.65514 20.5037 4.55298 20.2571 4.55298 19.9999C4.55298 19.7427 4.65514 19.4961 4.837 19.3142C5.01885 19.1324 5.2655 19.0302 5.52268 19.0302H35.5833C35.8405 19.0302 36.0871 19.1324 36.269 19.3142C36.4508 19.4961 36.553 19.7427 36.553 19.9999C36.553 20.2571 36.4508 20.5037 36.269 20.6856C36.0871 20.8674 35.8405 20.9696 35.5833 20.9696ZM35.5833 31.6363H5.52268C5.2655 31.6363 5.01885 31.5341 4.837 31.3522C4.65514 31.1704 4.55298 30.9237 4.55298 30.6666C4.55298 30.4094 4.65514 30.1627 4.837 29.9809C5.01885 29.799 5.2655 29.6969 5.52268 29.6969H35.5833C35.8405 29.6969 36.0871 29.799 36.269 29.9809C36.4508 30.1627 36.553 30.4094 36.553 30.6666C36.553 30.9237 36.4508 31.1704 36.269 31.3522C36.0871 31.5341 35.8405 31.6363 35.5833 31.6363Z" fill="#4D4D4D"/>
</svg>
