<svg width="33" height="24" viewBox="0 0 33 24" fill="none" xmlns="http://www.w3.org/2000/svg">
<path d="M31.4502 2.39935H1.38962C1.13244 2.39935 0.885793 2.29719 0.70394 2.11534C0.522086 1.93348 0.419922 1.68684 0.419922 1.42966C0.419922 1.17248 0.522086 0.925831 0.70394 0.743978C0.885793 0.562124 1.13244 0.459961 1.38962 0.459961H31.4502C31.7074 0.459961 31.9541 0.562124 32.1359 0.743978C32.3178 0.925831 32.4199 1.17248 32.4199 1.42966C32.4199 1.68684 32.3178 1.93348 32.1359 2.11534C31.9541 2.29719 31.7074 2.39935 31.4502 2.39935ZM31.4502 13.066H1.38962C1.13244 13.066 0.885793 12.9639 0.70394 12.782C0.522086 12.6002 0.419922 12.3535 0.419922 12.0963C0.419922 11.8391 0.522086 11.5925 0.70394 11.4106C0.885793 11.2288 1.13244 11.1266 1.38962 11.1266H31.4502C31.7074 11.1266 31.9541 11.2288 32.1359 11.4106C32.3178 11.5925 32.4199 11.8391 32.4199 12.0963C32.4199 12.3535 32.3178 12.6002 32.1359 12.782C31.9541 12.9639 31.7074 13.066 31.4502 13.066ZM31.4502 23.7327H1.38962C1.13244 23.7327 0.885793 23.6305 0.70394 23.4487C0.522086 23.2668 0.419922 23.0202 0.419922 22.763C0.419922 22.5058 0.522086 22.2592 0.70394 22.0773C0.885793 21.8955 1.13244 21.7933 1.38962 21.7933H31.4502C31.7074 21.7933 31.9541 21.8955 32.1359 22.0773C32.3178 22.2592 32.4199 22.5058 32.4199 22.763C32.4199 23.0202 32.3178 23.2668 32.1359 23.4487C31.9541 23.6305 31.7074 23.7327 31.4502 23.7327Z" fill="#4D4D4D"/>
</svg>
