<svg width="34" height="35" viewBox="0 0 34 35" fill="none" xmlns="http://www.w3.org/2000/svg">
<path d="M33.065 32.2664L28.7503 21.4756L26.1829 15.0557L21.0734 2.33885C21.0292 2.25185 20.9914 2.17985 20.9346 2.09585C20.1335 0.829868 18.5628 0.871868 16.7902 0.874868C15.0176 0.874868 13.4469 0.829868 12.6458 2.09585C12.589 2.17985 12.5512 2.25185 12.507 2.33885L7.39748 15.0557L4.8301 21.4756L0.515381 32.2664C-0.247895 34.0904 0.0675082 34.2074 1.7833 34.2074H9.62739C10.6114 34.1834 10.8291 34.0094 11.0246 33.0914L11.9866 27.7695C12.0623 27.3165 12.7057 27.2145 12.9391 27.6195L15.4655 32.0414C15.7525 32.5364 16.2792 32.7674 16.7902 32.7314C17.3012 32.7674 17.8279 32.5364 18.1149 32.0414L20.6413 27.6195C20.8747 27.2145 21.5181 27.3165 21.5938 27.7695L22.5558 33.0914C22.7513 34.0094 22.969 34.1834 23.953 34.2074H31.7971C33.5129 34.2074 33.8283 34.0904 33.065 32.2664ZM15.4529 10.1777L16.3676 5.11081V5.08981C16.3928 4.95481 16.478 4.86181 16.5852 4.81981C16.6199 4.79881 16.6546 4.79281 16.6987 4.79281C16.7271 4.78081 16.7555 4.78081 16.7902 4.78081C16.8249 4.78081 16.8533 4.78081 16.8817 4.79281C16.9258 4.79281 16.9605 4.79881 16.9952 4.81981C17.1025 4.86181 17.1876 4.95481 17.2097 5.08981V5.11081L18.1275 10.1777C18.1717 10.4147 17.9793 10.6307 17.7301 10.6307H15.8503C15.6011 10.6307 15.4087 10.4147 15.4529 10.1777ZM20.0578 23.5306H13.5226C13.2671 23.5306 13.0811 23.3146 13.1252 23.0776L13.2608 22.3396L13.9642 18.4246L14.7842 13.9067C14.8126 13.7177 14.9829 13.5887 15.1753 13.5887H18.4051C18.5975 13.5887 18.7678 13.7177 18.7962 13.9067L19.6162 18.4246L20.3196 22.3396L20.4552 23.0776C20.4993 23.3146 20.3133 23.5306 20.0578 23.5306Z" fill="#4D4D4D"/>
</svg>
