<svg width="34" height="34" viewBox="0 0 34 34" fill="none" xmlns="http://www.w3.org/2000/svg">
<path d="M33.1978 31.6701L28.8831 20.8793L26.3157 14.4594L21.2062 1.74253C21.162 1.65554 21.1242 1.58354 21.0674 1.49954C20.2663 0.233555 18.6956 0.275554 16.923 0.278554C15.1504 0.278554 13.5797 0.233555 12.7786 1.49954C12.7218 1.58354 12.684 1.65554 12.6398 1.74253L7.5303 14.4594L4.96291 20.8793L0.648194 31.6701C-0.115083 33.4941 0.200321 33.6111 1.91612 33.6111H9.7602C10.7443 33.5871 10.9619 33.4131 11.1574 32.4951L12.1194 27.1732C12.1951 26.7202 12.8385 26.6182 13.0719 27.0232L15.5983 31.4451C15.8853 31.9401 16.4121 32.1711 16.923 32.1351C17.434 32.1711 17.9607 31.9401 18.2477 31.4451L20.7741 27.0232C21.0075 26.6182 21.6509 26.7202 21.7266 27.1732L22.6886 32.4951C22.8841 33.4131 23.1018 33.5871 24.0858 33.6111H31.9299C33.6457 33.6111 33.9611 33.4941 33.1978 31.6701ZM15.5857 9.58143L16.5004 4.5145V4.4935C16.5256 4.3585 16.6108 4.2655 16.718 4.2235C16.7527 4.2025 16.7874 4.1965 16.8315 4.1965C16.8599 4.1845 16.8883 4.1845 16.923 4.1845C16.9577 4.1845 16.9861 4.1845 17.0145 4.1965C17.0586 4.1965 17.0933 4.2025 17.128 4.2235C17.2353 4.2655 17.3204 4.3585 17.3425 4.4935V4.5145L18.2603 9.58143C18.3045 9.81843 18.1121 10.0344 17.8629 10.0344H15.9831C15.7339 10.0344 15.5415 9.81843 15.5857 9.58143ZM20.1906 22.9342H13.6554C13.4 22.9342 13.2139 22.7183 13.258 22.4813L13.3936 21.7433L14.097 17.8283L14.917 13.3104C14.9454 13.1214 15.1158 12.9924 15.3081 12.9924H18.5379C18.7303 12.9924 18.9006 13.1214 18.929 13.3104L19.749 17.8283L20.4524 21.7433L20.588 22.4813C20.6322 22.7183 20.4461 22.9342 20.1906 22.9342Z" fill="#4D4D4D"/>
</svg>
