<svg width="65" height="65" viewBox="0 0 65 65" fill="none" xmlns="http://www.w3.org/2000/svg">
<rect x="0.246094" y="0.565552" width="64.117" height="64.117" rx="8.01462" fill="#DC4848"/>
<path d="M32.3049 49.4547C31.804 49.4547 31.3031 49.3378 30.8856 49.1041C27.7633 47.401 22.2699 45.5977 18.8303 45.1469L18.3461 45.0801C16.1588 44.8129 14.3555 42.7592 14.3555 40.5384V20.3683C14.3555 19.0492 14.8731 17.847 15.8248 16.9788C16.7766 16.1105 18.0121 15.6931 19.3145 15.81C22.9879 16.0938 28.5313 17.9305 31.6704 19.9008L32.0711 20.1346C32.188 20.2013 32.4385 20.2013 32.5386 20.1513L32.8058 19.9843C35.9449 18.014 41.4883 16.1439 45.1784 15.8267C45.2118 15.8267 45.3453 15.8267 45.3787 15.8267C46.5976 15.7098 47.8499 16.1439 48.7849 17.0122C49.7367 17.8804 50.2543 19.0826 50.2543 20.4017V40.5551C50.2543 42.7926 48.451 44.8296 46.247 45.0968L45.696 45.1635C42.2564 45.6144 36.7463 47.4344 33.6907 49.1208C33.29 49.3545 32.8058 49.4547 32.3049 49.4547ZM18.9138 18.2979C18.3795 18.2979 17.8953 18.4815 17.5112 18.8322C17.0938 19.2162 16.86 19.7672 16.86 20.3683V40.5384C16.86 41.5236 17.7116 42.4753 18.6633 42.6089L19.1642 42.6757C22.9211 43.1766 28.6816 45.0634 32.021 46.8834C32.1713 46.9501 32.3884 46.9668 32.4719 46.9334C35.8113 45.0801 41.6052 43.1766 45.3787 42.6757L45.9464 42.6089C46.8982 42.492 47.7497 41.5236 47.7497 40.5384V20.385C47.7497 19.7672 47.516 19.2329 47.0985 18.8322C46.6644 18.4481 46.1134 18.2645 45.4956 18.2979C45.4622 18.2979 45.3286 18.2979 45.2952 18.2979C42.1061 18.5817 36.9634 20.3015 34.1583 22.0547L33.8911 22.2384C32.9728 22.8061 31.6704 22.8061 30.7854 22.2551L30.3847 22.0213C27.5295 20.2681 22.3868 18.565 19.1141 18.2979C19.0474 18.2979 18.9806 18.2979 18.9138 18.2979Z" fill="#F3F3F3"/>
<path d="M32.3045 48.0522C31.6199 48.0522 31.0522 47.4845 31.0522 46.7999V21.7542C31.0522 21.0697 31.6199 20.502 32.3045 20.502C32.9891 20.502 33.5568 21.0697 33.5568 21.7542V46.7999C33.5568 47.5012 32.9891 48.0522 32.3045 48.0522Z" fill="#F3F3F3"/>
<path d="M25.2079 28.0157H21.451C20.7664 28.0157 20.1987 27.448 20.1987 26.7634C20.1987 26.0788 20.7664 25.5111 21.451 25.5111H25.2079C25.8925 25.5111 26.4602 26.0788 26.4602 26.7634C26.4602 27.448 25.8925 28.0157 25.2079 28.0157Z" fill="#F3F3F3"/>
<path d="M26.4602 33.0248H21.451C20.7664 33.0248 20.1987 32.4571 20.1987 31.7725C20.1987 31.0879 20.7664 30.5202 21.451 30.5202H26.4602C27.1447 30.5202 27.7124 31.0879 27.7124 31.7725C27.7124 32.4571 27.1447 33.0248 26.4602 33.0248Z" fill="#F3F3F3"/>
</svg>
