<svg width="25" height="25" viewBox="0 0 25 25" fill="none" xmlns="http://www.w3.org/2000/svg">
<path d="M12.3291 22.25C6.6791 22.25 2.0791 17.65 2.0791 12C2.0791 6.35 6.6791 1.75 12.3291 1.75C17.9791 1.75 22.5791 6.35 22.5791 12C22.5791 17.65 17.9791 22.25 12.3291 22.25ZM12.3291 3.25C7.4991 3.25 3.5791 7.18 3.5791 12C3.5791 16.82 7.4991 20.75 12.3291 20.75C17.1591 20.75 21.0791 16.82 21.0791 12C21.0791 7.18 17.1591 3.25 12.3291 3.25Z" fill="#4D4D4D"/>
<path d="M22.829 23.2499C22.639 23.2499 22.449 23.1799 22.299 23.0299L20.299 21.0299C20.009 20.7399 20.009 20.2599 20.299 19.9699C20.589 19.6799 21.069 19.6799 21.359 19.9699L23.359 21.9699C23.649 22.2599 23.649 22.7399 23.359 23.0299C23.209 23.1799 23.019 23.2499 22.829 23.2499Z" fill="#4D4D4D"/>
</svg>
