<svg width="25" height="24" viewBox="0 0 25 24" fill="none" xmlns="http://www.w3.org/2000/svg">
<path d="M12.0269 21.75C6.37686 21.75 1.77686 17.15 1.77686 11.5C1.77686 5.85 6.37686 1.25 12.0269 1.25C17.6769 1.25 22.2769 5.85 22.2769 11.5C22.2769 17.15 17.6769 21.75 12.0269 21.75ZM12.0269 2.75C7.19686 2.75 3.27686 6.68 3.27686 11.5C3.27686 16.32 7.19686 20.25 12.0269 20.25C16.8569 20.25 20.7769 16.32 20.7769 11.5C20.7769 6.68 16.8569 2.75 12.0269 2.75Z" fill="#4D4D4D"/>
<path d="M22.5268 22.7499C22.3368 22.7499 22.1468 22.6799 21.9968 22.5299L19.9968 20.5299C19.7068 20.2399 19.7068 19.7599 19.9968 19.4699C20.2868 19.1799 20.7668 19.1799 21.0568 19.4699L23.0568 21.4699C23.3468 21.7599 23.3468 22.2399 23.0568 22.5299C22.9068 22.6799 22.7168 22.7499 22.5268 22.7499Z" fill="#4D4D4D"/>
</svg>
