<svg width="19" height="18" viewBox="0 0 19 18" fill="none" xmlns="http://www.w3.org/2000/svg">
<rect width="19" height="18" fill="#1E1E1E"/>
<g id="komponente">
<rect width="9000" height="4483" transform="translate(-1266.71 -201)" fill="#CDCDCD"/>
<g id="autoskola-card">
<rect x="-297.212" y="-130.077" width="355" height="569" rx="4.5" stroke="#9747FF" stroke-dasharray="10 5"/>
<g id="Property 1=opened">
<rect x="-281.212" y="-26.0771" width="323" height="419" rx="19.5" fill="#F3F3F3"/>
<rect x="-281.212" y="-26.0771" width="323" height="419" rx="19.5" stroke="#AFAFAF"/>
<g id="Frame 121">
<rect x="-281.212" y="-26.0771" width="323" height="71" rx="19.5" stroke="#AFAFAF"/>
<g id="Frame 145">
<g id="Frame 113">
<g id="Page-1">
<g id="Dribbble-Light-Preview">
<g id="icons">
<path id="star_favorite-[#1499]" d="M9.28271 1.35156H9.2876C9.64694 1.35163 9.99626 1.51115 10.2163 1.8291L10.3022 1.97559L11.8208 5.02832V5.02734C12.131 5.65345 12.7318 6.08393 13.4233 6.18359V6.18457L16.8208 6.6748C17.6918 6.80096 18.0631 7.79855 17.5591 8.45215L17.4468 8.57715L14.9878 10.9541C14.7404 11.1928 14.5548 11.4888 14.4478 11.8154C14.3542 12.1012 14.3234 12.4032 14.356 12.7012L14.3735 12.8291V12.8301L14.9546 16.1865C15.0766 16.8976 14.5096 17.4941 13.8413 17.4941C13.7138 17.4941 13.5815 17.4714 13.4478 17.4209L13.314 17.3613L10.2759 15.7764L10.1597 15.7207C9.88539 15.5984 9.58784 15.5352 9.28662 15.5352C8.98561 15.5352 8.68865 15.5986 8.41455 15.7207L8.29834 15.7764H8.29736L5.26025 17.3613L5.25732 17.3623C5.09504 17.4481 4.91452 17.4926 4.73096 17.4932C4.10553 17.4923 3.5687 16.969 3.60498 16.3184L3.61963 16.1865V16.1855L4.19971 12.8291H4.20068C4.25165 12.5325 4.23845 12.2287 4.1626 11.9385L4.12549 11.8154C4.01838 11.4886 3.83303 11.1928 3.58545 10.9541H3.58643L1.12842 8.57715C0.506488 7.97506 0.784405 6.94781 1.5874 6.71094L1.75537 6.6748L5.1499 6.18457L5.15088 6.18555C5.44915 6.143 5.73507 6.03764 5.98877 5.87695L6.09521 5.80469C6.33936 5.62849 6.54295 5.40257 6.69287 5.14258L6.75342 5.02832L8.27393 1.97559L8.2749 1.97266C8.34413 1.83183 8.44222 1.70796 8.56201 1.6084L8.68896 1.5166C8.82265 1.4342 8.97193 1.38178 9.12646 1.36133L9.28271 1.35156Z" fill="#FFF192" stroke="#C6C6C6"/>
</g>
</g>
</g>
</g>
</g>
</g>
</g>
</g>
</g>
</svg>
