<svg width="65" height="65" viewBox="0 0 65 65" fill="none" xmlns="http://www.w3.org/2000/svg">
<rect x="0.246094" y="0.565552" width="64.117" height="64.117" rx="8.01462" fill="#3E9AC4"/>
<path d="M47.3322 46.3992H30.6351C29.9505 46.3992 29.3828 45.8315 29.3828 45.1469C29.3828 44.4623 29.9505 43.8946 30.6351 43.8946H47.3322C48.0168 43.8946 48.5845 44.4623 48.5845 45.1469C48.5845 45.8315 48.0168 46.3992 47.3322 46.3992Z" fill="#F3F3F3"/>
<path d="M47.3322 34.7112H30.6351C29.9505 34.7112 29.3828 34.1435 29.3828 33.4589C29.3828 32.7744 29.9505 32.2067 30.6351 32.2067H47.3322C48.0168 32.2067 48.5845 32.7744 48.5845 33.4589C48.5845 34.1435 48.0168 34.7112 47.3322 34.7112Z" fill="#F3F3F3"/>
<path d="M47.3322 23.0231H30.6351C29.9505 23.0231 29.3828 22.4554 29.3828 21.7708C29.3828 21.0863 29.9505 20.5186 30.6351 20.5186H47.3322C48.0168 20.5186 48.5845 21.0863 48.5845 21.7708C48.5845 22.4554 48.0168 23.0231 47.3322 23.0231Z" fill="#F3F3F3"/>
<path d="M18.9471 24.6929C18.6299 24.6929 18.3126 24.576 18.0622 24.3255L16.3925 22.6558C15.9082 22.1716 15.9082 21.3702 16.3925 20.8859C16.8767 20.4017 17.6781 20.4017 18.1624 20.8859L18.9471 21.6707L23.0713 17.5465C23.5555 17.0623 24.357 17.0623 24.8412 17.5465C25.3254 18.0307 25.3254 18.8322 24.8412 19.3164L19.8321 24.3255C19.5816 24.576 19.2644 24.6929 18.9471 24.6929Z" fill="#F3F3F3"/>
<path d="M18.9471 36.3809C18.6299 36.3809 18.3126 36.2641 18.0622 36.0136L16.3925 34.3439C15.9082 33.8597 15.9082 33.0582 16.3925 32.574C16.8767 32.0898 17.6781 32.0898 18.1624 32.574L18.9471 33.3588L23.0713 29.2346C23.5555 28.7503 24.357 28.7503 24.8412 29.2346C25.3254 29.7188 25.3254 30.5202 24.8412 31.0045L19.8321 36.0136C19.5816 36.2641 19.2644 36.3809 18.9471 36.3809Z" fill="#F3F3F3"/>
<path d="M18.9471 48.0689C18.6299 48.0689 18.3126 47.952 18.0622 47.7015L16.3925 46.0318C15.9082 45.5476 15.9082 44.7461 16.3925 44.2619C16.8767 43.7777 17.6781 43.7777 18.1624 44.2619L18.9471 45.0467L23.0713 40.9225C23.5555 40.4383 24.357 40.4383 24.8412 40.9225C25.3254 41.4067 25.3254 42.2082 24.8412 42.6924L19.8321 47.7015C19.5816 47.952 19.2644 48.0689 18.9471 48.0689Z" fill="#F3F3F3"/>
</svg>
